<svg xmlns="http://www.w3.org/2000/svg" viewBox="0 0 256 256">
  <defs>
    <linearGradient id="docGrad" x1="0%" y1="0%" x2="100%" y2="100%">
      <stop offset="0%" style="stop-color:#2563eb;stop-opacity:1"/>
      <stop offset="100%" style="stop-color:#0891b2;stop-opacity:1"/>
    </linearGradient>
  </defs>
  <path fill="url(#docGrad)" d="M64 20h96l48 48v168a12 12 0 0 1-12 12H64a12 12 0 0 1-12-12V32a12 12 0 0 1 12-12z"/>
  <path fill="#e0f2fe" d="M160 20v36a12 12 0 0 0 12 12h36z"/>
  <rect x="88" y="100" width="80" height="8" rx="4" fill="#e0f2fe" opacity="0.9"/>
  <rect x="88" y="124" width="80" height="8" rx="4" fill="#e0f2fe" opacity="0.7"/>
  <rect x="88" y="148" width="56" height="8" rx="4" fill="#e0f2fe" opacity="0.5"/>
  <path fill="#fbbf24" d="M180 160l8 16 18 2-13 12 3 18-16-9-16 9 3-18-13-12 18-2z"/>
  <circle cx="180" cy="160" r="4" fill="#fef3c7"/>
  <circle cx="168" cy="152" r="2" fill="#fef3c7"/>
  <circle cx="192" cy="152" r="2" fill="#fef3c7"/>
</svg>